# xmcd CD database file
#
# Track frame offsets:
#	150
#	17937
#	31800
#	49275
#	65400
#	79650
#	96750
#	114000
#	130575
#	149625
#
# Disc length: 2227 seconds
#
# Revision: 1
# Processed by: cddbd v1.5.2PL0 Copyright (c) Steve Scherf et al.
# Submitted via: CDex 1.51
#
DISCID=7f08b10a
DTITLE=Sea Wolf - Old World Romance
DYEAR=2013
DGENRE=Country
TTITLE0=Old Friend
TTITLE1=In Nothing
TTITLE2=Priscilla
TTITLE3=Kasper
TTITLE4=Blue Stockings
TTITLE5=Saint Catherine ST.
TTITLE6=Changeing Seasons
TTITLE7=Dear Fellow Traveller
TTITLE8=Miracle Cure
TTITLE9=Whirlpool
EXTD=YEAR: 2013
EXTT0=
EXTT1=
EXTT2=
EXTT3=
EXTT4=
EXTT5=
EXTT6=
EXTT7=
EXTT8=
EXTT9=
PLAYORDER=
